<svg id="visual" viewBox="0 0 900 600" width="900" height="600" xmlns="http://www.w3.org/2000/svg" xmlns:xlink="http://www.w3.org/1999/xlink" version="1.1"><rect x="0" y="0" width="900" height="600" fill="#d2d2d2"></rect><defs><linearGradient id="grad1_0" x1="33.3%" y1="0%" x2="100%" y2="100%"><stop offset="20%" stop-color="#d2d2d2" stop-opacity="1"></stop><stop offset="80%" stop-color="#d2d2d2" stop-opacity="1"></stop></linearGradient></defs><defs><linearGradient id="grad2_0" x1="0%" y1="0%" x2="66.7%" y2="100%"><stop offset="20%" stop-color="#d2d2d2" stop-opacity="1"></stop><stop offset="80%" stop-color="#d2d2d2" stop-opacity="1"></stop></linearGradient></defs><g transform="translate(900, 0)"><path d="M0 216.3C-25.2 205.9 -50.4 195.5 -77.3 186.6C-104.2 177.8 -132.8 170.5 -153 153C-173.1 135.4 -184.9 107.6 -194 80.4C-203.2 53.2 -209.8 26.6 -216.3 0L0 0Z" fill="#222222"></path></g><g transform="translate(0, 600)"><path d="M0 -216.3C26.6 -210.2 53.3 -204 80.7 -194.9C108.2 -185.8 136.4 -173.7 153 -153C169.5 -132.2 174.3 -102.7 182.9 -75.8C191.5 -48.8 203.9 -24.4 216.3 0L0 0Z" fill="#222222"></path></g></svg>